<svg width="55" height="55" viewBox="0 0 55 55" fill="none" xmlns="http://www.w3.org/2000/svg">
    <g clip-path="url(#clip0_1733_487)">
        <path fill-rule="evenodd" clip-rule="evenodd" d="M54.9998 42.7778C52.9988 49.8221 46.521 55 38.8361 55H21.3888V42.7778H54.9998Z" fill="#F07C00"/>
        <path d="M16.8057 0.5H54.5V11.7227H16.8057C13.9987 11.7227 11.7227 13.9986 11.7227 16.8057C11.7227 19.6126 13.9987 21.8887 16.8057 21.8887H54.5V33.1113H16.8057C13.9987 33.1113 11.7227 35.3873 11.7227 38.1943V54.5H0.5V38.1943C0.500008 34.2532 1.87988 30.6358 4.20508 27.8184L4.46777 27.5L4.20508 27.1816C1.87223 24.3623 0.500023 20.755 0.5 16.8057C0.5 7.80192 7.80198 0.5 16.8057 0.5Z" fill="#004589" stroke="#7EABFF"/>
    </g>
    <defs>
        <clipPath id="clip0_1733_487">
            <rect width="55" height="55" fill="white"/>
        </clipPath>
    </defs>
</svg>
