<svg width="174" height="53" viewBox="0 0 174 53" fill="none" xmlns="http://www.w3.org/2000/svg">
    <g clip-path="url(#clip0_1730_166)">
        <path fill-rule="evenodd" clip-rule="evenodd" d="M68.2526 7.03176H69.5334V10.0471H71.0951V2.03646H67.9941C66.4549 2.03646 65.3649 3.00401 65.3649 4.53411C65.3649 5.54671 65.893 6.33423 66.7357 6.71674L65.0842 10.0471H66.938L68.2526 7.03176ZM69.5334 5.64801H68.0728C67.3762 5.64801 66.9155 5.1642 66.9155 4.51156C66.9155 3.84789 67.3762 3.40896 68.0728 3.40896H69.5334V5.64801ZM78.7016 4.53411C78.7016 3.1728 77.7241 2.03646 76.0612 2.03646H72.9603V10.0471H74.5219V7.03176H76.0612C77.7241 7.03176 78.7016 5.89548 78.7016 4.53411ZM77.1398 4.53411C77.1398 5.18665 76.6904 5.6254 75.9825 5.6254H74.5219V3.43151H75.9825C76.6904 3.43151 77.1398 3.88158 77.1398 4.53411ZM85.6564 6.04177C85.6564 4.51157 85.6339 3.61155 84.8361 2.81273C84.297 2.27263 83.6228 1.96886 82.7015 1.96886C81.7802 1.96886 81.0947 2.27263 80.5555 2.81273C79.7578 3.61155 79.7465 4.51157 79.7465 6.04177C79.7465 7.57187 79.7578 8.47197 80.5555 9.2708C81.0947 9.81074 81.7802 10.1145 82.7015 10.1145C83.6228 10.1145 84.297 9.81074 84.8361 9.2708C85.6339 8.47197 85.6564 7.57187 85.6564 6.04177ZM84.0946 6.04177C84.0946 7.57187 83.9936 7.94318 83.7014 8.28064C83.4767 8.53942 83.1284 8.71946 82.7015 8.71946C82.2746 8.71946 81.9262 8.53942 81.6903 8.28064C81.3981 7.94318 81.3083 7.57187 81.3083 6.04177C81.3083 4.51157 81.3981 4.12905 81.6903 3.79158C81.9262 3.53281 82.2746 3.36392 82.7015 3.36392C83.1284 3.36392 83.4767 3.53281 83.7014 3.79158C83.9936 4.12905 84.0946 4.51157 84.0946 6.04177ZM92.8696 7.58312H91.2854C91.1282 8.23565 90.7124 8.71946 89.9372 8.71946C89.5103 8.71946 89.1619 8.56202 88.9373 8.30324C88.6451 7.96562 88.544 7.57187 88.544 6.04177C88.544 4.51157 88.6451 4.11775 88.9373 3.78028C89.1619 3.52156 89.5103 3.36392 89.9372 3.36392C90.7124 3.36392 91.1169 3.84789 91.2743 4.50042H92.8696C92.5776 2.82404 91.4315 1.96886 89.9372 1.96886C89.0159 1.96886 88.3417 2.27263 87.7912 2.81273C86.9935 3.61155 86.9822 4.51157 86.9822 6.04177C86.9822 7.57187 86.9935 8.47197 87.7912 9.2708C88.3417 9.81074 89.0159 10.1145 89.9372 10.1145C91.4203 10.1145 92.5776 9.25956 92.8696 7.58312ZM99.7121 10.0471V2.03646H94.7348V5.67045C94.7348 8.17935 94.1618 8.65201 93.3642 8.65201H93.1395V10.0471H93.7574C95.4202 10.0471 96.2404 9.12452 96.2404 5.76044V3.43151H98.1505V10.0471H99.7121ZM107.768 10.0471L104.847 2.03646H103.622L100.712 10.0471H102.341L102.825 8.62941H105.667L106.139 10.0471H107.768ZM105.251 7.31309H103.263L104.274 4.39907L105.251 7.31309ZM113.453 5.94048C114.116 5.56911 114.442 5.00662 114.442 4.24165C114.442 2.89142 113.476 2.03646 111.97 2.03646H108.757V10.0471H112.105C113.611 10.0471 114.554 9.15821 114.554 7.7519C114.554 7.18936 114.408 6.73929 114.06 6.36797C113.891 6.19919 113.768 6.10921 113.453 5.94048ZM110.318 5.27664V3.43151H111.847C112.487 3.43151 112.88 3.78028 112.88 4.35408C112.88 4.92787 112.487 5.27664 111.847 5.27664H110.318ZM110.318 8.65201V6.68299H111.948C112.588 6.68299 112.993 7.05437 112.993 7.66186C112.993 8.2694 112.588 8.65201 111.948 8.65201H110.318ZM121.711 7.58312H120.127C119.97 8.23565 119.554 8.71946 118.779 8.71946C118.352 8.71946 118.004 8.56202 117.779 8.30324C117.487 7.96562 117.386 7.57187 117.386 6.04177C117.386 4.51157 117.487 4.11775 117.779 3.78028C118.004 3.52156 118.352 3.36392 118.779 3.36392C119.554 3.36392 119.959 3.84789 120.116 4.50042H121.711C121.419 2.82404 120.273 1.96886 118.779 1.96886C117.858 1.96886 117.183 2.27263 116.633 2.81273C115.835 3.61155 115.824 4.51157 115.824 6.04177C115.824 7.57187 115.835 8.47197 116.633 9.2708C117.183 9.81074 117.858 10.1145 118.779 10.1145C120.262 10.1145 121.419 9.25956 121.711 7.58312ZM124.644 10.0471V2.03646H123.082V10.0471H124.644ZM129.374 10.0471L126.419 5.79413L129.104 2.03646H127.239L124.655 5.85044L127.464 10.0471H129.374ZM136.329 10.0471V2.03646H134.936L131.823 7.16681V2.03646H130.262V10.0471H131.655L134.767 4.90548V10.0471H136.329ZM143.059 0H141.958C141.924 0.494945 141.643 0.697541 141.239 0.697541C140.834 0.697541 140.553 0.494945 140.52 0H139.419C139.464 1.21503 140.351 1.60885 141.239 1.60885C142.126 1.60885 143.014 1.21503 143.059 0ZM144.261 10.0471V2.03646H142.868L139.756 7.16681V2.03646H138.194V10.0471H139.587L142.699 4.90548V10.0471H144.261ZM70.7244 17.1688V15.7738H65.6908V23.7844H67.2526V17.1688H70.7244ZM70.803 30.9061V29.5111H65.0616V30.9061H67.1515V37.5217H68.7131V30.9061H70.803ZM77.6006 19.7791C77.6006 18.2489 77.578 17.3489 76.7803 16.55C76.2411 16.0099 75.5669 15.7062 74.6456 15.7062C73.7243 15.7062 73.0388 16.0099 72.4996 16.55C71.7019 17.3489 71.6906 18.2489 71.6906 19.7791C71.6906 21.3092 71.7019 22.2093 72.4996 23.0082C73.0388 23.548 73.7243 23.8518 74.6456 23.8518C75.5669 23.8518 76.2411 23.548 76.7803 23.0082C77.578 22.2093 77.6006 21.3092 77.6006 19.7791ZM76.0387 19.7791C76.0387 21.3092 75.9378 21.6805 75.6455 22.018C75.4208 22.2767 75.0725 22.4567 74.6456 22.4567C74.2187 22.4567 73.8703 22.2767 73.6344 22.018C73.3422 21.6805 73.2524 21.3092 73.2524 19.7791C73.2524 18.2489 73.3422 17.8664 73.6344 17.5289C73.8703 17.2701 74.2187 17.1013 74.6456 17.1013C75.0725 17.1013 75.4208 17.2701 75.6455 17.5289C75.9378 17.8664 76.0387 18.2489 76.0387 19.7791ZM84.8138 21.3205H83.2295C83.0723 21.973 82.6565 22.4567 81.8813 22.4567C81.4545 22.4567 81.106 22.2993 80.8814 22.0405C80.5892 21.7029 80.4882 21.3092 80.4882 19.7791C80.4882 18.2489 80.5892 17.8551 80.8814 17.5176C81.106 17.2589 81.4545 17.1013 81.8813 17.1013C82.6565 17.1013 83.061 17.5852 83.2184 18.2377H84.8138C84.5217 16.5613 83.3757 15.7062 81.8813 15.7062C80.96 15.7062 80.2859 16.0099 79.7354 16.55C78.9376 17.3489 78.9264 18.2489 78.9264 19.7791C78.9264 21.3092 78.9376 22.2093 79.7354 23.0082C80.2859 23.548 80.96 23.8518 81.8813 23.8518C83.3644 23.8518 84.5217 22.9969 84.8138 21.3205ZM91.6001 15.7738H89.9821L88.4653 19.6328L86.7912 15.7738H85.1621L87.7238 21.3317L87.4878 21.8829C87.3418 22.2093 87.0833 22.3893 86.6564 22.3893H86.0271V23.7844H86.9822C87.9148 23.7844 88.4653 23.1543 88.7687 22.4343L91.6001 15.7738ZM98.5772 25.5621V22.3893H97.6559V15.7738H92.8359V17.8214C92.8359 19.6665 92.5437 21.3655 91.8808 22.3893H91.128V25.5621H92.6336V23.7844H97.0718V25.5621H98.5772ZM96.0943 22.3893H93.6224C94.1729 21.2754 94.3303 19.9141 94.3303 18.3277V17.1688H96.0943V22.3893ZM106.004 23.7844L103.083 15.7738H101.858L98.9481 23.7844H100.577L101.06 22.3668H103.903L104.375 23.7844H106.004ZM103.487 21.0504H101.499L102.51 18.1364L103.487 21.0504ZM112.734 18.2714C112.734 16.9101 111.757 15.7738 110.094 15.7738H106.993V23.7844H108.554V20.7691H110.094C111.757 20.7691 112.734 19.6328 112.734 18.2714ZM111.172 18.2714C111.172 18.924 110.723 19.3627 110.015 19.3627H108.554V17.1688H110.015C110.723 17.1688 111.172 17.6189 111.172 18.2714ZM119.666 21.3205H118.082C117.925 21.973 117.509 22.4567 116.734 22.4567C116.307 22.4567 115.959 22.2993 115.734 22.0405C115.442 21.7029 115.341 21.3092 115.341 19.7791C115.341 18.2489 115.442 17.8551 115.734 17.5176C115.959 17.2589 116.307 17.1013 116.734 17.1013C117.509 17.1013 117.914 17.5852 118.071 18.2377H119.666C119.374 16.5613 118.228 15.7062 116.734 15.7062C115.813 15.7062 115.138 16.0099 114.588 16.55C113.79 17.3489 113.779 18.2489 113.779 19.7791C113.779 21.3092 113.79 22.2093 114.588 23.0082C115.138 23.548 115.813 23.8518 116.734 23.8518C118.217 23.8518 119.374 22.9969 119.666 21.3205ZM126.048 17.1688V15.7738H120.307V17.1688H122.397V23.7844H123.958V17.1688H126.048ZM132.014 19.6778C132.677 19.3064 133.003 18.7439 133.003 17.9789C133.003 16.6288 132.037 15.7738 130.531 15.7738H127.318V23.7844H130.666C132.171 23.7844 133.115 22.8956 133.115 21.4892C133.115 20.9266 132.969 20.4766 132.621 20.1053C132.452 19.9365 132.329 19.8465 132.014 19.6778ZM128.879 19.0139V17.1688H130.408C131.048 17.1688 131.441 17.5176 131.441 18.0914C131.441 18.6652 131.048 19.0139 130.408 19.0139H128.879ZM128.879 22.3893V20.4203H130.508C131.149 20.4203 131.554 20.7917 131.554 21.3991C131.554 22.0067 131.149 22.3893 130.508 22.3893H128.879ZM139.98 23.7844V22.3893H136.272V20.4429H139.43V19.0477H136.272V17.1688H139.98V15.7738H134.711V23.7844H139.98ZM147.339 23.7844V15.7738H145.778V19.0477H143.07V15.7738H141.508V23.7844H143.07V20.4316H145.778V23.7844H147.339ZM155.036 23.7844V15.7738H153.474V19.0477H150.766V15.7738H149.205V23.7844H150.766V20.4316H153.474V23.7844H155.036ZM165.069 23.7844V15.7738H163.507V23.7844H165.069ZM162.642 21.2867C162.642 19.8241 161.609 18.7889 160.047 18.7889H158.462V15.7738H156.901V23.7844H160.047C161.597 23.7844 162.642 22.7492 162.642 21.2867ZM161.08 21.2867C161.08 21.9506 160.631 22.3893 159.923 22.3893H158.462V20.1841H159.923C160.631 20.1841 161.08 20.6341 161.08 21.2867ZM171.799 13.7373H170.698C170.664 14.2322 170.383 14.4348 169.979 14.4348C169.574 14.4348 169.294 14.2322 169.26 13.7373H168.159C168.204 14.9524 169.091 15.3461 169.979 15.3461C170.867 15.3461 171.754 14.9524 171.799 13.7373ZM173.001 23.7844V15.7738H171.608L168.496 20.9041V15.7738H166.934V23.7844H168.327L171.44 18.6428V23.7844H173.001ZM77.342 37.5217V36.1266H73.6343V34.1802H76.7915V32.785H73.6343V30.9061H77.342V29.5111H72.0726V37.5217H77.342ZM84.6565 37.5217L82.1622 33.4151L84.4878 29.5111H82.7239L81.3194 32.0987L79.9263 29.5111H78.151L80.4768 33.4151L77.9938 37.5217H79.7802L81.3194 34.7314L82.87 37.5217H84.6565ZM91.4763 37.5217V29.5111H89.9147V32.785H87.2069V29.5111H85.6451V37.5217H87.2069V34.1689H89.9147V37.5217H91.4763ZM99.4086 37.5217V29.5111H98.0155L94.9031 34.6414V29.5111H93.3415V37.5217H94.7347L97.847 32.3801V37.5217H99.4086ZM106.689 37.5217V29.5111H105.139V33.1676C104.813 33.235 104.105 33.3364 103.622 33.3364C103.06 33.3364 102.622 33.0776 102.622 32.3801V29.5111H101.06V32.785C101.06 34.1126 102.083 34.7314 103.105 34.7314C103.959 34.7314 104.723 34.5853 105.139 34.5177V37.5217H106.689ZM113.824 37.5217V36.1266H110.116V34.1802H113.273V32.785H110.116V30.9061H113.824V29.5111H108.554V37.5217H113.824ZM120.97 35.0578H119.386C119.228 35.7103 118.813 36.194 118.037 36.194C117.61 36.194 117.262 36.0366 117.037 35.7778C116.745 35.4402 116.644 35.0465 116.644 33.5164C116.644 31.9862 116.745 31.5924 117.037 31.2549C117.262 30.9962 117.61 30.8386 118.037 30.8386C118.813 30.8386 119.217 31.3225 119.374 31.975H120.97C120.678 30.2986 119.532 29.4435 118.037 29.4435C117.116 29.4435 116.442 29.7472 115.891 30.2873C115.094 31.0861 115.082 31.9862 115.082 33.5164C115.082 35.0465 115.094 35.9466 115.891 36.7455C116.442 37.2853 117.116 37.5891 118.037 37.5891C119.52 37.5891 120.678 36.7341 120.97 35.0578ZM123.902 37.5217V29.5111H122.34V37.5217H123.902ZM128.633 37.5217L125.678 33.2688L128.363 29.5111H126.498L123.914 33.3251L126.722 37.5217H128.633ZM135.587 37.5217V29.5111H134.194L131.082 34.6414V29.5111H129.52V37.5217H130.913L134.026 32.3801V37.5217H135.587ZM142.317 27.4747H141.216C141.183 27.9695 140.902 28.1722 140.497 28.1722C140.093 28.1722 139.812 27.9695 139.778 27.4747H138.677C138.722 28.6897 139.61 29.0834 140.497 29.0834C141.385 29.0834 142.272 28.6897 142.317 27.4747ZM143.52 37.5217V29.5111H142.126L139.014 34.6414V29.5111H137.452V37.5217H138.846L141.958 32.3801V37.5217H143.52ZM71.2075 43.2484H69.5897L68.0728 47.1074L66.3987 43.2484H64.7695L67.3313 48.8064L67.0953 49.3576C66.9493 49.6839 66.6907 49.864 66.2638 49.864H65.6346V51.259H66.5897C67.5223 51.259 68.0728 50.6289 68.3761 49.9089L71.2075 43.2484ZM78.0162 51.259V43.2484H76.4545V46.5223H73.7467V43.2484H72.185V51.259H73.7467V47.9062H76.4545V51.259H78.0162ZM85.9485 51.259V43.2484H84.5554L81.443 48.3787V43.2484H79.8814V51.259H81.2745L84.3868 46.1174V51.259H85.9485ZM92.5101 47.1524C93.1729 46.7811 93.4989 46.2185 93.4989 45.4536C93.4989 44.1034 92.5326 43.2484 91.027 43.2484H87.8137V51.259H91.1619C92.6674 51.259 93.6112 50.3702 93.6112 48.9638C93.6112 48.4013 93.4652 47.9512 93.1167 47.5799C92.9482 47.4111 92.8247 47.3211 92.5101 47.1524ZM89.3753 46.4886V44.6435H90.9035C91.5438 44.6435 91.9371 44.9922 91.9371 45.566C91.9371 46.1398 91.5438 46.4886 90.9035 46.4886H89.3753ZM89.3753 49.864V47.895H91.0045C91.645 47.895 92.0495 48.2663 92.0495 48.8738C92.0495 49.4813 91.645 49.864 91.0045 49.864H89.3753ZM100.476 51.259V49.864H96.7683V47.9175H99.9256V46.5223H96.7683V44.6435H100.476V43.2484H95.2066V51.259H100.476ZM107.746 45.7461C107.746 44.3847 106.768 43.2484 105.105 43.2484H102.004V51.259H103.566V48.2437H105.105C106.768 48.2437 107.746 47.1074 107.746 45.7461ZM106.184 45.7461C106.184 46.3985 105.734 46.8373 105.027 46.8373H103.566V44.6435H105.027C105.734 44.6435 106.184 45.0935 106.184 45.7461ZM114.678 48.7951H113.094C112.936 49.4476 112.521 49.9314 111.745 49.9314C111.319 49.9314 110.97 49.7739 110.746 49.5152C110.453 49.1775 110.352 48.7838 110.352 47.2537C110.352 45.7235 110.453 45.3297 110.746 44.9922C110.97 44.7335 111.319 44.5759 111.745 44.5759C112.521 44.5759 112.925 45.0598 113.082 45.7123H114.678C114.386 44.0359 113.24 43.1808 111.745 43.1808C110.824 43.1808 110.15 43.4846 109.6 44.0246C108.802 44.8234 108.79 45.7235 108.79 47.2537C108.79 48.7838 108.802 49.6839 109.6 50.4827C110.15 51.0227 110.824 51.3264 111.745 51.3264C113.228 51.3264 114.386 50.4714 114.678 48.7951ZM122.093 51.259V43.2484H120.7L117.588 48.3787V43.2484H116.026V51.259H117.419L120.532 46.1174V51.259H122.093ZM129.104 44.6435V43.2484H123.363V44.6435H125.453V51.259H127.014V44.6435H129.104ZM135.643 51.259V49.864H131.936V47.9175H135.093V46.5223H131.936V44.6435H135.643V43.2484H130.374V51.259H135.643ZM142.317 44.6435V43.2484H136.576V44.6435H138.666V51.259H140.228V44.6435H142.317Z" fill="white"/>
        <path fill-rule="evenodd" clip-rule="evenodd" d="M53.0012 41.2219C51.0728 48.01 44.8306 52.9997 37.4252 52.9997H20.6123V41.2219H53.0012Z" fill="#F07C00"/>
        <path d="M16.1943 0.5H52.5V11.2773H16.1943C13.4795 11.2774 11.2774 13.4794 11.2773 16.1943C11.2773 18.9093 13.4794 21.1113 16.1943 21.1113H52.5V31.8887H16.1943C13.4794 31.8887 11.2773 34.0907 11.2773 36.8057V52.5H0.5V36.8057C0.5 33.012 1.82833 29.5302 4.06641 26.8184L4.3291 26.5L4.06543 26.1816C1.82005 23.4681 0.5 19.9958 0.5 16.1943C0.500089 7.52812 7.52817 0.500035 16.1943 0.5Z" fill="#004589" stroke="#7EABFF"/>
    </g>
    <defs>
        <clipPath id="clip0_1730_166">
            <rect width="174" height="53" fill="white"/>
        </clipPath>
    </defs>
</svg>
